<svg xmlns="http://www.w3.org/2000/svg" version="1.1" width="256" height="256" viewBox="0 0 256 256"
	 xml:space="preserve">

<defs>
</defs>
<g style="stroke: none; stroke-width: 0; stroke-dasharray: none; stroke-linecap: butt; stroke-linejoin: miter; stroke-miterlimit: 10; fill: none; fill-rule: nonzero; opacity: 1;" transform="translate(1.4065934065934016 1.4065934065934016) scale(2.81 2.81)" >
	<path d="M 90 28.076 h -5.183 v -1.474 c 0 -0.552 -0.447 -1 -1 -1 H 73.382 c -2.493 0 -4.521 2.028 -4.521 4.521 v 0.543 H 19.397 c -4.226 0 -7.665 3.438 -7.665 7.665 s 3.438 7.665 7.664 7.665 l 25.605 0.008 l 0 -1 v 1 h 25.6 c 3.124 0 5.665 2.541 5.665 5.664 c 0 3.124 -2.541 5.665 -5.665 5.665 H 21.14 v -0.544 c 0 -2.492 -2.028 -4.521 -4.521 -4.521 H 6.183 c -0.552 0 -1 0.447 -1 1 v 1.473 H 0 v 7.184 h 5.183 v 1.473 c 0 0.553 0.448 1 1 1 h 10.435 c 2.493 0 4.521 -2.028 4.521 -4.521 v -0.544 h 49.463 c 4.227 0 7.665 -3.438 7.665 -7.665 c 0 -4.226 -3.438 -7.664 -7.665 -7.664 h -25.6 l -25.605 -0.008 c -3.124 0 -5.665 -2.541 -5.665 -5.665 s 2.541 -5.665 5.665 -5.665 H 68.86 v 0.544 c 0 2.493 2.028 4.521 4.521 4.521 h 10.436 c 0.553 0 1 -0.448 1 -1 v -1.474 H 90 V 28.076 z M 2 59.925 v -3.184 h 3.183 v 3.184 H 2 z M 19.14 59.877 c 0 1.39 -1.131 2.521 -2.521 2.521 H 7.183 v -8.129 h 9.435 c 1.39 0 2.521 1.131 2.521 2.521 V 59.877 z M 82.817 35.732 h -9.436 c -1.391 0 -2.521 -1.131 -2.521 -2.521 v -3.087 c 0 -1.39 1.131 -2.521 2.521 -2.521 h 9.436 V 35.732 z M 88 33.258 h -3.183 v -3.183 H 88 V 33.258 z" style="stroke: none; stroke-width: 1; stroke-dasharray: none; stroke-linecap: butt; stroke-linejoin: miter; stroke-miterlimit: 10; fill: rgb(0,0,0); fill-rule: nonzero; opacity: 1;" transform=" matrix(1 0 0 1 0 0) " stroke-linecap="round" />
</g>
</svg>